<svg xmlns="http://www.w3.org/2000/svg" viewBox="0 0 512 512" width="100%" height="100%">
  <defs>
    <!-- Brand gradients matching Escrowa's color token system -->
    <linearGradient id="gradEmerald" x1="0%" y1="0%" x2="100%" y2="100%">
      <stop offset="0%" stop-color="var(--primary, #059669)" />
      <stop offset="100%" stop-color="#34D399" />
    </linearGradient>
    <linearGradient id="gradCyan" x1="0%" y1="0%" x2="100%" y2="100%">
      <stop offset="0%" stop-color="var(--accent, #06B6D4)" />
      <stop offset="100%" stop-color="#67E8F9" />
    </linearGradient>
    <linearGradient id="shieldFill" x1="0%" y1="0%" x2="0%" y2="100%">
      <stop offset="0%" stop-color="rgba(11, 19, 41, 0.95)" />
      <stop offset="100%" stop-color="rgba(5, 150, 105, 0.05)" />
    </linearGradient>

    <!-- Glowing filter for select vector elements -->
    <filter id="glow" x="-20%" y="-20%" width="140%" height="140%">
      <feGaussianBlur stdDeviation="8" result="blur" />
      <feComposite in="SourceGraphic" in2="blur" operator="over" />
    </filter>
  </defs>

  <rect width="100%" height="100%" fill="none"/>

  <!-- Main group scaled to fit 512x512 (Filter removed from here to keep circuitry crisp) -->
  <g transform="translate(22.53, 25.57) scale(3.8)">
    
    <!-- Outer High-Tech Circuitry - Crisp and sharp (Omitted the smallest inner square) -->
    <path d="M98.42,98.8c-0.25-0.61-0.39-1.28-0.39-1.98s0.14-1.37,0.39-1.98c0.26-0.61,0.63-1.17,1.09-1.63l0.03-0.04 c0.26-0.26,0.56-0.51,0.88-0.7c0.17-0.11,0.35-0.21,0.55-0.3v-8.22h-8.51c-0.26,1.8-1.12,3.42-2.36,4.67 c-1.55,1.55-3.7,2.51-6.07,2.51H78.9v22.42h15.05c0.08-0.13,0.16-0.26,0.25-0.39c0.18-0.26,0.38-0.5,0.6-0.72 c0.47-0.47,1.04-0.86,1.68-1.12c0.61-0.25,1.28-0.39,1.98-0.39c0.69,0,1.37,0.14,1.98,0.39c0.64,0.26,1.2,0.65,1.68,1.12 c0.47,0.47,0.86,1.04,1.12,1.68c0.25,0.61,0.39,1.28,0.39,1.98c0,0.69-0.14,1.35-0.39,1.98c-0.26,0.64-0.65,1.21-1.12,1.68 s-1.04,0.86-1.68,1.12c-0.61,0.25-1.28,0.39-1.98,0.39c-0.68,0-1.33-0.13-1.94-0.38l-0.04-0.01c-0.64-0.26-1.2-0.65-1.68-1.12 c-0.29-0.29-0.55-0.63-0.77-0.98c-0.12-0.2-0.23-0.42-0.32-0.63H76.6c-0.64,0-1.21-0.26-1.63-0.68c-0.43-0.43-0.69-1-0.69-1.64l0,0 V91.13H63.08v20.34c0.17,0.09,0.34,0.18,0.51,0.29c0.31,0.19,0.6,0.43,0.85,0.68c0.48,0.48,0.86,1.04,1.12,1.68c0.25,0.61,0.39,1.28,0.39,1.98c0,0.68-0.13,1.33-0.38,1.94l-0.01,0.04c-0.26,0.64-0.65,1.2-1.12,1.68 c-0.47,0.47-1.04,0.86-1.68,1.12c-0.61,0.25-1.28,0.39-1.98,0.39c-0.69,0-1.36-0.14-1.98-0.39c-0.64-0.26-1.21-0.65-1.68-1.12 c-0.47-0.47-0.86-1.04-1.12-1.68c-0.25-0.61-0.39-1.28-0.39-1.98c0-0.68,0.13-1.33,0.38-1.94l0.01-0.04 c0.26-0.64,0.65-1.2,1.12-1.68c0.25-0.25,0.52-0.47,0.82-0.66l0.04-0.03c0.16-0.09,0.33-0.18,0.5-0.27l0,0V91.13H43.54v10.54 c0,0.64-0.26,1.21-0.68,1.63s-0.99,0.68-1.63,0.68H30.63c-0.08,0.16-0.17,0.31-0.27,0.47c-0.18,0.27-0.39,0.53-0.63,0.77 l-0.04,0.04c-0.47,0.47-1.04,0.86-1.68,1.12c-0.61,0.25-1.28,0.39-1.98,0.39c-0.68,0-1.33-0.13-1.94-0.38l-0.04-0.01 c-0.64-0.26-1.2-0.65-1.68-1.12c-0.47-0.47-0.86-1.04-1.12-1.68c-0.25-0.61-0.39-1.28-0.39-1.98c0-0.69,0.14-1.36,0.39-1.98 c0.26-0.64,0.65-1.21,1.12-1.68c0.49-0.46,1.07-0.85,1.71-1.11l0,0c0.61-0.25,1.28-0.39,1.98-0.39c0.7,0,1.37,0.14,1.98,0.39 c0.61,0.26,1.17,0.63,1.63,1.1l0.04,0.03c0.26,0.26,0.51,0.56,0.7,0.88c0.1,0.17,0.21,0.35,0.3,0.55h8.22v-8.45 c-1.63-0.36-3.09-1.18-4.22-2.31c-1.51-1.51-2.44-3.57-2.44-5.83v-5.49H7.73v15.05c0.13,0.08,0.26,0.16,0.39,0.25 c0.26,0.18,0.49,0.38,0.72,0.6c0.47,0.47,0.86,1.04,1.12,1.68c0.25,0.61,0.39,1.28,0.39,1.98c0,0.69-0.14,1.37-0.39,1.98 c-0.26,0.64-0.65,1.2-1.12,1.68c-0.47,0.47-1.04,0.86-1.68,1.12c-0.61,0.25-1.28,0.39-1.98,0.39c-0.69,0-1.35-0.14-1.98-0.39 c-0.64-0.26-1.21-0.65-1.68-1.12c-0.47-0.47-0.86-1.04-1.12-1.68C0.14,98.22,0,97.55,0,96.85c0-0.68,0.13-1.33,0.38-1.94l0.01-0.04 c0.26-0.64,0.65-1.2,1.12-1.68c0.29-0.29,0.63-0.55,0.98-0.77c0.19-0.12,0.42-0.23,0.63-0.32V75c0-0.64,0.26-1.21,0.68-1.63 c0.43-0.43,1-0.69,1.64-0.69l0,0h26.83v-11.2H9.81c-0.09,0.17-0.18,0.34-0.29,0.51c-0.19,0.31-0.43,0.6-0.68,0.85 c-0.48,0.48-1.04,0.86-1.68,1.12c-0.61,0.25-1.28,0.39-1.98,0.39c-0.68,0-1.33-0.13-1.94-0.38l-0.04-0.01 c-0.64-0.26-1.2-0.65-1.68-1.12c-0.47-0.47-0.86-1.04-1.12-1.68c-0.25-0.61-0.39-1.28-0.39-1.98c0-0.69,0.14-1.36,0.39-1.98 c0.26-0.64,0.65-1.21,1.12-1.68s1.04-0.86,1.68-1.12C3.82,54.14,4.48,54,5.19,54c0.68,0,1.33,0.13,1.94,0.38l0.04,0.01 c0.64,0.26,1.2,0.65,1.68,1.12c0.25,0.25,0.47,0.52,0.67,0.82l0.03,0.04c0.09,0.16,0.18,0.33,0.27,0.5l0,0h22.45V42.96 c0-0.34,0.02-0.68,0.06-1.02H19.61c-0.64,0-1.21-0.26-1.63-0.68c-0.42-0.42-0.68-0.99-0.68-1.63V29.03 c-0.16-0.08-0.31-0.17-0.47-0.27c-0.27-0.18-0.53-0.39-0.77-0.63l-0.04-0.04c-0.47-0.47-0.86-1.04-1.12-1.68 c-0.25-0.61-0.39-1.28-0.39-1.98c0-0.68,0.13-1.33,0.38-1.94l0.01-0.04c0.26-0.64,0.65-1.2,1.12-1.68 c0.47-0.47,1.04-0.86,1.68-1.12c0.61-0.25,1.28-0.39,1.98-0.39c0.69,0,1.36,0.14,1.98,0.39c0.64,0.26,1.21,0.65,1.68,1.12 c0.46,0.49,0.85,1.07,1.11,1.71l0,0c0.25,0.61,0.39,1.28,0.39,1.98c0,0.7-0.14,1.37-0.39,1.98c-0.26,0.61-0.63,1.17-1.09,1.63 l-0.03,0.04c-0.26,0.26-0.56,0.51-0.89,0.7c-0.17,0.1-0.35,0.21-0.55,0.3v8.22h12.55v0.06c0.08-0.09,0.17-0.18,0.25-0.26 c1.55-1.55,3.7-2.51,6.07-2.51h4.81V7.73H30.54c-0.08,0.13-0.16,0.26-0.25,0.39c-0.18,0.26-0.38,0.49-0.6,0.72 c-0.47,0.47-1.04,0.86-1.68,1.12c-0.61,0.25-1.28,0.39-1.98,0.39c-0.69,0-1.37-0.14-1.98-0.39c-0.64-0.26-1.2-0.65-1.68-1.12 c-0.47-0.47-0.86-1.04-1.12-1.68C21,6.54,20.86,5.88,20.86,5.17c0-0.69,0.14-1.35,0.39-1.98c0.26-0.64,0.65-1.21,1.12-1.68 c0.47-0.47,1.04-0.86,1.68-1.12C24.66,0.14,25.33,0,26.03,0c0.68,0,1.33,0.13,1.94,0.38l0.04,0.01c0.64,0.26,1.2,0.65,1.68,1.12 c0.29,0.29,0.55,0.63,0.77,0.98c0.12,0.19,0.23,0.42,0.33,0.63h17.09c0.64,0,1.21,0.26,1.63,0.68c0.43,0.43,0.69,1,0.69,1.64l0,0 v29.18h11.2V9.81c-0.17-0.09-0.34-0.18-0.51-0.29c-0.31-0.19-0.6-0.43-0.85-0.68c-0.48-0.48-0.86-1.04-1.12-1.68 c-0.25-0.61-0.39-1.28-0.39-1.98c0-0.68,0.13-1.33,0.38-1.94l0.01-0.04c0.26-0.64,0.65-1.2,1.12-1.68 c0.47-0.47,1.04-0.86,1.68-1.12c0.61-0.25,1.28-0.39,1.98-0.39c0.69,0,1.36,0.14,1.98,0.39c0.64,0.26,1.21,0.65,1.68,1.12 c0.47,0.47,0.86,1.04,1.12,1.68c0.25,0.61,0.39,1.28,0.39,1.98c0,0.68-0.13,1.33-0.38,1.94l-0.01,0.04 c-0.26,0.64-0.65,1.2-1.12,1.68c-0.25,0.25-0.52,0.47-0.82,0.67l-0.04,0.03c-0.16,0.09-0.33,0.18-0.5,0.27l0,0v24.8h14.93v-15 c0-0.64,0.26-1.21,0.68-1.63c0.42-0.42,0.99-0.68,1.63-0.68h10.61c0.08-0.16,0.17-0.31,0.27-0.47c0.18-0.27,0.39-0.53,0.63-0.77 l0.04,0.04c0.47-0.47,1.04-0.86,1.68-1.12c0.61-0.25,1.28-0.39,1.98-0.39c0.68,0,1.33,0.13,1.94,0.38l0.04,0.01 c0.64,0.26,1.2,0.65,1.68,1.12c0.47,0.47,0.86,1.04,1.12,1.68c0.25,0.61,0.39,1.28,0.39,1.98c0,0.69-0.14,1.36-0.39,1.98 c-0.26,0.64-0.65,1.21-1.12,1.68c-0.5,0.46-1.07,0.85-1.71,1.11l0,0c-0.61,0.25-1.28,0.39-1.98,0.39s-1.37-0.14-1.98-0.39 c-0.61-0.26-1.17-0.63-1.63-1.09l-0.04-0.03c-0.26-0.26-0.56-0.56-0.7-0.88c-0.11-0.17-0.21-0.35-0.3-0.55h-8.22v12.84 c1.77,0.31,3.35,1.17,4.56,2.38c1.51,1.51,2.44,3.57,2.44,5.83v1.03h22.6V28.93c-0.13-0.08-0.26-0.16-0.39-0.25 c-0.26-0.18-0.49-0.38-0.71-0.6c-0.47-0.47-0.86-1.04-1.12-1.68c-0.25-0.61-0.39-1.28-0.39-1.98c0-0.69,0.14-1.37,0.39-1.98 c-0.26-0.64,0.65-1.2,1.12-1.68c0.47-0.47,1.04-0.86,1.68-1.12c0.61-0.25,1.28-0.39,1.98-0.39c0.69,0,1.36,0.14,1.98,0.39 c0.64,0.26,1.21,0.65,1.68,1.12c0.47,0.47,0.86,1.04,1.12,1.68c0.25,0.61,0.39,1.28,0.39,1.98c0,0.68-0.13,1.33-0.38,1.94 l-0.01,0.04c-0.26,0.64-0.65,1.2-1.12,1.68c-0.29,0.29-0.63,0.55-0.98,0.77c-0.2,0.12-0.42,0.23-0.63,0.33v17.09 c0,0.64-0.26,1.21-0.68,1.63c-0.43,0.43-1,0.69-1.64,0.69l0,0H92.55v11.2h20.52c0.09-0.17,0.18-0.34,0.29-0.51 c0.2-0.31,0.43-0.6,0.68-0.85c0.48-0.48,1.04-0.86,1.68-1.12c0.61-0.25,1.28-0.39,1.98-0.39c0.68,0,1.33,0.13,1.94,0.38l0.04,0.01 c0.64,0.26,1.2,0.65,1.68,1.12c0.47,0.47,0.86,1.04,1.12,1.68c0.25,0.61,0.39,1.28,0.39,1.98c0,0.69-0.14,1.36-0.39,1.98 c-0.26,0.64-0.65,1.21-1.12,1.68s-1.04,0.86-1.68,1.12c-0.61,0.25-1.28,0.39-1.98,0.39c-0.68,0-1.33-0.13-1.94-0.38l-0.04-0.01 c-0.64-0.26-1.2-0.65-1.68-1.12c-0.25-0.25-0.47-0.52-0.67-0.82l-0.03-0.04c-0.09-0.16-0.18-0.33-0.27-0.5l0,0H92.55v14.93h10.72 c0.64,0,1.21,0.26,1.63,0.68c0.42,0.42,0.68,0.99,0.68,1.63v10.61c0.16,0.08,0.31,0.17,0.47,0.28c0.27,0.18,0.53,0.39,0.77,0.63 l0.04,0.04c0.47,0.47,0.86,1.04,1.12,1.68c0.25,0.61,0.39,1.28,0.39,1.98c0,0.68-0.13,1.33-0.38,1.94l-0.01,0.04 c-0.26,0.64-0.65,1.2-1.12,1.68c-0.47,0.47-1.04,0.86-1.68,1.12c-0.61,0.25-1.28,0.39-1.98,0.39c-0.69,0-1.36-0.14-1.98-0.39 c-0.64-0.26-1.21-0.65-1.68-1.12C99.08,100.02,98.68,99.44,98.42,98.8L98.42,98.8L98.42,98.8z M84.04,39.08H40.77c-0.99,0-1.9,0.41-2.56,1.08c-0.71,0.71-1.15,1.7-1.15,2.8 v39.83c0,1.1,0.44,2.09,1.15,2.8c0.67,0.67,1.57,1.08,2.56,1.08h43.27c0.99,0,1.9-0.41,2.56-1.08c0.71-0.71,1.15-1.7,1.15-2.8 V42.96c0-1.1-0.44-2.09-1.15-2.8C85.94,39.49,85.03,39.08,84.04,39.08L84.04,39.08z" 
          fill="url(#gradCyan)" />

    <!-- Innermost Secure Shield strictly inside the box (filter applied individually) -->
    <g transform="translate(44.52, 42.13) scale(0.32)" filter="url(#glow)">
      <!-- Shield Shape (SVG 2) -->
      <path d="M55.713,0c20.848,13.215,39.682,19.467,55.846,17.989 c2.823,57.098-18.263,90.818-55.63,104.891C19.844,109.708-1.5,77.439,0.083,17.123C19.058,18.116,37.674,14.014,55.713,0L55.713,0 z" 
            fill="url(#shieldFill)" stroke="url(#gradCyan)" stroke-width="4.5" stroke-linejoin="round" />
      
      <!-- Inner Shield Accent Border -->
      <path d="M55.735,7.055c18.454,11.697,35.126,17.232,49.434,15.923 c2.498,50.541-16.166,80.39-49.241,92.846C23.986,104.165,5.091,75.603,6.493,22.211C23.29,23.091,39.768,19.46,55.735,7.055 L55.735,7.055z" 
            fill="none" stroke="url(#gradEmerald)" stroke-width="2.5" opacity="0.75" />

      <!-- Verified Checkmark (SVG 2) -->
      <path fill-rule="evenodd" clip-rule="evenodd" d="M33.784,66.775c-1.18-1.01-1.318-2.786-0.309-3.967c1.011-1.181,2.787-1.318,3.967-0.309l11.494,9.875l25.18-27.684 c1.047-1.15,2.828-1.234,3.979-0.188c1.149,1.046,1.233,2.827,0.187,3.978L51.262,78.188l-0.002-0.002 c-1.02,1.121-2.751,1.236-3.91,0.244L33.784,66.775L33.784,66.775z" 
            fill="url(#gradEmerald)" />
    </g>
  </g>
</svg>